{"title":"Hou Hsiao-Hsien - Flight of Red Balloon (Voyage du ballon rouge)","uid":8947545,"size":1900916813,"categoryP":"video","categoryS":"movies","magnet":"?xt=urn:btih:d78e628d70af650a224c37edb08d3bc972f3f233&amp;dn=Hou+Hsiao-Hsien+-+Flight+of+Red+Balloon+%28Voyage+du+ballon+rouge%29&amp;tr=udp%3A%2F%2Ftracker.openbittorrent.com%3A80&amp;tr=udp%3A%2F%2Fopen.demonii.com%3A1337&amp;tr=udp%3A%2F%2Ftracker.coppersurfer.tk%3A6969&amp;tr=udp%3A%2F%2Fexodus.desync.com%3A6969","seeders":2,"leechers":2,"uploader":"moonflux","files":1,"time":1379808122,"description":"In Paris, Chinese cinema student Song Fang is hired to work as the nanny of Simon by his divorced mother Suzanne, who works voicing marionettes in a theater. Suzanne is having troubles with her tenant Marc, who does not pay the rent, while she waits for the return of her older daughter Louise, who lives with her father in Brussels.\n\nGeneral\nUnique ID : 224620442443319802017644054764952935741 (0xA8FC52D8E9655EC2A78462629ECEDD3D)\nComplete name : The.Flight.Of.The.Red.Balloon.2007.DVDRip.x264-HANDJOB.mkv\nFormat : Matroska\nFormat version : Version 2\nFile size : 1.77 GiB\nDuration : 1h 50mn\nOverall bit rate : 2 300 Kbps\nEncoded date : UTC 2013-09-13 14:10:25\nWriting application : mkvmerge v5.8.0 ('No Sleep / Pillow') built on Sep 2 2012 15:37:04\nWriting library : libebml v1.2.3 + libmatroska v1.3.0\n\nVideo\nID : 1\nFormat : AVC\nFormat/Info : Advanced Video Codec\nFormat profile : &lt;a class=&quot;__cf_email__&quot; href=&quot;/cdn-cgi/l/email-protection&quot; data-cfemail=&quot;eba3828c83aba7d8c5da&quot;&gt;[email&amp;#160;protected]&lt;/a&gt;&lt;script cf-hash='f9e31' type=&quot;text/javascript&quot;&gt;\n/* &lt;![CDATA[ */!function(){try{var t=&quot;currentScript&quot;in document?document.currentScript:function(){for(var t=document.getElementsByTagName(&quot;script&quot;),e=t.length;e--;)if(t[e].getAttribute(&quot;cf-hash&quot;))return t[e]}();if(t&amp;&amp;t.previousSibling){var e,r,n,i,c=t.previousSibling,a=c.getAttribute(&quot;data-cfemail&quot;);if(a){for(e=&quot;&quot;,r=parseInt(a.substr(0,2),16),n=2;a.length-n;n+=2)i=parseInt(a.substr(n,2),16)^r,e+=String.fromCharCode(i);e=document.createTextNode(e),c.parentNode.replaceChild(e,c)}}}catch(u){}}();/* ]]&gt; */&lt;/script&gt;\nFormat settings, CABAC : Yes\nFormat settings, ReFrames : 9 frames\nCodec ID : V_MPEG4/ISO/AVC\nDuration : 1h 50mn\nBit rate : 2 063 Kbps\nWidth : 716 pixels\nHeight : 550 pixels\nDisplay aspect ratio : 1.851\nFrame rate : 25.000 fps\nColor space : YUV\nChroma subsampling : 4:2:0\nBit depth : 8 bits\nScan type : Progressive\nBits/(Pixel*Frame) : 0.210\nStream size : 1.59 GiB (90%)\nWriting library : x264 core 135 r2345 f0c1c53\nEncoding settings : cabac=1 // deblock=1:-3:-3 / analyse=0x3:0x133 / me=umh / subme=9 / psy=1 / psy_rd=1.00:0.00 // me_range=24 / chroma_me=1 / trellis=2 / 8x8dct=1 / cqm=0 / deadzone=21,11 / fast_pskip=0 / chroma_qp_offset=-2 / threads=6 / lookahead_threads=1 / sliced_threads=0 / nr=0 / decimate=1 / interlaced=0 / bluray_compat=0 / constrained_intra=0 / bframes=6 / b_pyramid=2 / b_adapt=2 / b_bias=0 / direct=3 / weightb=1 / open_gop=0 / weightp=2 / keyint=250 / keyint_min=25 / scenecut=40 / intra_refresh=0 / rc_lookahead=60 / rc=crf / mbtree=1 / crf=17.0 / qcomp=0.60 / qpmin=0 / qpmax=69 / qpstep=4 / ip_ratio=1.40 / aq=1:1.10\nLanguage : English\nColor primaries : BT.470-6 System B, BT.470-6 System G, BT.601-6 625, BT.1358 625, BT.1700 625 PAL, BT.1700 625 SECAM\nTransfer characteristics : BT.709-5, BT.1361\nMatrix coefficients : BT.601-6 525, BT.1358 525, BT.1700 NTSC, SMPTE 170M\n\nAudio\nID : 2\nFormat : AC-3\nFormat/Info : Audio Coding 3\nMode extension : CM (complete main)\nCodec ID : A_AC3\nDuration : 1h 50mn\nBit rate mode : Constant\nBit rate : 192 Kbps\nChannel(s) : 2 channels\nChannel positions : Front: L R\nSampling rate : 48.0 KHz\nBit depth : 16 bits\nCompression mode : Lossy\nStream size : 151 MiB (8%)\nLanguage : French\n\nText\nID : 3\nFormat : UTF-8\nCodec ID : S_TEXT/UTF8\nCodec ID/Info : UTF-8 Plain Text\nTitle : srt\nLanguage : English","torrent":{"xt":"urn:btih:d78e628d70af650a224c37edb08d3bc972f3f233","amp;dn":"Hou+Hsiao-Hsien+-+Flight+of+Red+Balloon+%28Voyage+du+ballon+rouge%29","amp;tr":["udp%3A%2F%2Ftracker.openbittorrent.com%3A80","udp%3A%2F%2Fopen.demonii.com%3A1337","udp%3A%2F%2Ftracker.coppersurfer.tk%3A6969","udp%3A%2F%2Fexodus.desync.com%3A6969"],"infoHash":"d78e628d70af650a224c37edb08d3bc972f3f233","infoHashBuffer":{"type":"Buffer","data":[215,142,98,141,112,175,101,10,34,76,55,237,176,141,59,201,114,243,242,51]},"announce":[],"urlList":[]}}